# xmcd CD database file
#
# Track frame offsets:
#	150
#	16520
#	26788
#	42133
#	57730
#	73520
#	88275
#	103403
#	121100
#	134138
#	146723
#	162703
#
# Disc length: 2369 seconds
#
# Revision: 0
# Processed by: cddbd v1.5PL3 Copyright (c) Steve Scherf et al.
# Submitted via: CDex 1.50beta8
#
DISCID=b6093f0c
DTITLE=Benny Goodman/Glenn Miller - Glenn Miller and Benny Goodman
DYEAR=1900
DGENRE=Jazz
TTITLE0=イン・ザ・ムード
TTITLE1=レッツ・ダンス
TTITLE2=ムーンライト・セレナーデ
TTITLE3=ムーングロウ
TTITLE4=タキシード・ジャンクション
TTITLE5=サヴォイでストンプ
TTITLE6=パーフィディア
TTITLE7=ワン・オクロック・ジャンプ
TTITLE8=茶色の小瓶
TTITLE9=世界は日の出を待っている
TTITLE10=セントルイス・ブルース・マーチ
TTITLE11=あなたの想い出
EXTD=
EXTT0=
EXTT1=
EXTT2=
EXTT3=
EXTT4=
EXTT5=
EXTT6=
EXTT7=
EXTT8=
EXTT9=
EXTT10=
EXTT11=
PLAYORDER=
